<svg id="Warstwa_1" data-name="Warstwa 1" xmlns="http://www.w3.org/2000/svg" viewBox="0 0 447.2 841.89">
  <path d="M391.21,542.17V114.68a114.67,114.67,0,1,0-229.35,0V542.17c-117,105.17-42.33,299.72,114.66,299.72S508.18,647.35,391.21,542.17Zm-61.6-165.68H223.47V114.68a53.07,53.07,0,1,1,106.14,0V376.49h0Z" transform="translate(-1.14)"/>
  <path d="M83.72,390.14H31.95a30.8,30.8,0,1,0,0,61.6H83.72A30.8,30.8,0,0,0,83.72,390.14Z" transform="translate(-1.14)"/>
  <path d="M83.72,288.69H31.95a30.8,30.8,0,1,0,0,61.6H83.72A30.8,30.8,0,0,0,83.72,288.69Z" transform="translate(-1.14)"/>
  <path d="M83.72,187.23H31.95a30.8,30.8,0,1,0,0,61.6H83.72A30.8,30.8,0,0,0,83.72,187.23Z" transform="translate(-1.14)"/>
</svg>