<?xml version="1.0" encoding="iso-8859-1"?>
<!-- Generator: Adobe Illustrator 16.0.0, SVG Export Plug-In . SVG Version: 6.00 Build 0)  -->
<!DOCTYPE svg PUBLIC "-//W3C//DTD SVG 1.1//EN" "http://www.w3.org/Graphics/SVG/1.1/DTD/svg11.dtd">
<svg version="1.1" id="Capa_1" xmlns="http://www.w3.org/2000/svg" xmlns:xlink="http://www.w3.org/1999/xlink" x="0px" y="0px"
	 width="245.693px" height="245.693px" viewBox="0 0 245.693 245.693" style="enable-background:new 0 0 245.693 245.693;"
	 xml:space="preserve">
<g>
	<g>
		<path d="M122.847,51.067c-39.578,0-71.783,32.199-71.783,71.783c0,39.589,32.2,71.783,71.783,71.783
			c39.58,0,71.781-32.194,71.781-71.783C194.628,83.266,162.427,51.067,122.847,51.067z M102.689,146.249
			c0,4.451-3.612,8.063-8.063,8.063s-8.063-3.612-8.063-8.063V97.87c0-4.451,3.612-8.062,8.063-8.062s8.063,3.611,8.063,8.062
			V146.249z M161.818,146.249c0,4.451-3.611,8.063-8.062,8.063s-8.063-3.612-8.063-8.063V97.87c0-4.451,3.612-8.062,8.063-8.062
			s8.062,3.611,8.062,8.062V146.249z"/>
		<path d="M219.604,0H26.09C12.753,0,1.9,10.854,1.9,24.189v197.316c0,13.333,10.853,24.188,24.189,24.188h193.514
			c13.334,0,24.189-10.855,24.189-24.188V24.189C243.793,10.848,232.938,0,219.604,0z M122.847,210.754
			c-48.475,0-87.909-39.434-87.909-87.91c0-48.475,39.434-87.909,87.909-87.909c48.474,0,87.906,39.434,87.906,87.909
			C210.753,171.32,171.32,210.754,122.847,210.754z"/>
	</g>
</g>
<g>
</g>
<g>
</g>
<g>
</g>
<g>
</g>
<g>
</g>
<g>
</g>
<g>
</g>
<g>
</g>
<g>
</g>
<g>
</g>
<g>
</g>
<g>
</g>
<g>
</g>
<g>
</g>
<g>
</g>
</svg>
