<svg id="Warstwa_1" data-name="Warstwa 1" xmlns="http://www.w3.org/2000/svg" viewBox="0 0 595.28 842">
  <path d="M155.9,684.12H439.37v52.35H155.9V684.12ZM340.16,842h-85c-31.31,0-56.69-23.56-56.69-52.63V776.22H396.85v13.16C396.85,818.44,371.47,842,340.16,842ZM290.46,0.08C127.92,3.63-2.61,130,0,280.87,1.29,352.21,31.67,417,80.63,465.36c47.62,47.08,75.28,108.55,75.28,173.14v5.88H276.38v-230H219.68V375H375.59v39.47H318.9v230H439.37v-5.9c0-64.47,27.45-125.94,75-172.89,50.14-49.45,80.86-116,80.86-189.31C595.28,121.48,458.12-3.59,290.46.08Z" transform="translate(0 0)"/>
</svg>