<svg id="Warstwa_1" data-name="Warstwa 1" xmlns="http://www.w3.org/2000/svg" viewBox="0 0 595.28 597.86">
  <path d="M297.64,124.26c-97.4,0-176.65,78.35-176.65,174.67s79.24,174.67,176.65,174.67,176.65-78.34,176.65-174.67S395,124.26,297.64,124.26ZM248,355.88a19.84,19.84,0,0,1-39.69,0V238.15a19.84,19.84,0,0,1,39.69,0V355.88Zm145.51,0a19.84,19.84,0,0,1-39.68,0V238.15a19.84,19.84,0,0,1,39.68,0V355.88Z"/>
  <path d="M535.75,0H59.53C26.71,0,0,26.41,0,58.86V539c0,32.44,26.71,58.86,59.53,58.86H535.75c32.81,0,59.53-26.41,59.53-58.86V58.86C595.28,26.4,568.57,0,535.75,0ZM297.64,512.84c-119.29,0-216.34-96-216.34-213.92S178.35,85,297.64,85,514,181,514,298.92,416.93,512.84,297.64,512.84Z"/>
</svg>